<svg width="38" height="36" viewBox="0 0 38 36" fill="none" xmlns="http://www.w3.org/2000/svg">
<g clip-path="url(#clip0_3_23)">
<path d="M0 24.6316C0 14.1672 8.53566 5.6842 19 5.6842V5.6842C29.4643 5.6842 38 14.1672 38 24.6316V24.6316C38 30.9102 32.9102 36 26.6316 36H11.3684C5.08982 36 0 30.9102 0 24.6316V24.6316Z" fill="white"/>
<circle cx="7.5" cy="20.5" r="2.5" fill="#FFB2DB"/>
<circle cx="31.5" cy="20.5" r="2.5" fill="#FFB2DB"/>
<path d="M32 37C32 36.0807 31.6896 35.1705 31.0866 34.3212C30.4835 33.4719 29.5996 32.7003 28.4853 32.0503C27.371 31.4002 26.0481 30.8846 24.5922 30.5328C23.1363 30.1811 21.5759 30 20 30C18.4241 30 16.8637 30.1811 15.4078 30.5328C13.9519 30.8846 12.629 31.4002 11.5147 32.0503C10.4004 32.7003 9.5165 33.4719 8.91345 34.3212C8.31039 35.1705 8 36.0807 8 37L20 37H32Z" fill="#EBEBEB"/>
</g>
<ellipse cx="10.26" cy="14.4" rx="1.52" ry="1.51579" fill="#393939"/>
<ellipse opacity="0.5" cx="10.26" cy="14.4" rx="0.912" ry="0.909474" fill="#1C1C1C"/>
<ellipse cx="10.716" cy="13.9453" rx="0.456" ry="0.454737" fill="white"/>
<ellipse cx="28.5" cy="14.4" rx="1.52" ry="1.51579" fill="#393939"/>
<ellipse opacity="0.5" cx="28.4999" cy="14.4" rx="0.912" ry="0.909474" fill="#1C1C1C"/>
<ellipse cx="28.956" cy="13.9453" rx="0.456" ry="0.454737" fill="white"/>
<path d="M16.34 17.0526C16.34 17.0526 17.0893 17.7158 17.67 17.7158C18.2507 17.7158 19 17.0526 19 17.0526C19 17.0526 19.7493 17.7158 20.33 17.7158C20.9107 17.7158 21.66 17.0526 21.66 17.0526" stroke="#333333" stroke-width="1.3125" stroke-linecap="round"/>
<ellipse cx="27.55" cy="5.30526" rx="2.47" ry="5.30526" fill="white"/>
<ellipse cx="10.07" cy="5.30526" rx="2.47" ry="5.30526" fill="white"/>
<defs>
<clipPath id="clip0_3_23">
<path d="M0 24.6316C0 14.1672 8.53566 5.6842 19 5.6842V5.6842C29.4643 5.6842 38 14.1672 38 24.6316V24.6316C38 30.9102 32.9102 36 26.6316 36H11.3684C5.08982 36 0 30.9102 0 24.6316V24.6316Z" fill="white"/>
</clipPath>
</defs>
</svg>
