<svg width="38" height="36" viewBox="0 0 38 36" fill="none" xmlns="http://www.w3.org/2000/svg">
<ellipse cx="27.55" cy="5.30526" rx="2.47" ry="5.30526" fill="white"/>
<ellipse cx="10.07" cy="5.30526" rx="2.47" ry="5.30526" fill="white"/>
<g clip-path="url(#clip0_11_57)">
<path d="M0 24.6316C0 14.1672 8.53566 5.6842 19 5.6842V5.6842C29.4643 5.6842 38 14.1672 38 24.6316V24.6316C38 30.9102 32.9102 36 26.6316 36H11.3684C5.08982 36 0 30.9102 0 24.6316V24.6316Z" fill="white"/>
<circle cx="7.5" cy="20.5" r="2.5" fill="#FFB2DB"/>
<circle cx="31.5" cy="20.5" r="2.5" fill="#FFB2DB"/>
<path d="M32 37C32 36.0807 31.6896 35.1705 31.0866 34.3212C30.4835 33.4719 29.5996 32.7003 28.4853 32.0503C27.371 31.4002 26.0481 30.8846 24.5922 30.5328C23.1363 30.1811 21.5759 30 20 30C18.4241 30 16.8637 30.1811 15.4078 30.5328C13.9519 30.8846 12.629 31.4002 11.5147 32.0503C10.4004 32.7003 9.5165 33.4719 8.91345 34.3212C8.31039 35.1705 8 36.0807 8 37L20 37H32Z" fill="#EBEBEB"/>
<path d="M16 17.8333L16.6667 18.5L17.3333 17.8333L18.6667 19.1666L20 17.8333L21.3333 19.1666L22.6667 17.8333L23.3333 18.5L24 17.8333" stroke="#333333" stroke-width="0.666667"/>
</g>
<path d="M27.083 13.083C26.9723 13.1937 26.9723 13.3732 27.083 13.4839L28.0992 14.5L27.083 15.5162C26.9723 15.6268 26.9723 15.8063 27.083 15.917C27.1937 16.0277 27.3732 16.0277 27.4839 15.917L28.5 14.9008L29.5162 15.917C29.6268 16.0277 29.8063 16.0277 29.917 15.917C30.0277 15.8063 30.0277 15.6268 29.917 15.5162L28.9008 14.5L29.917 13.4839C30.0277 13.3732 30.0277 13.1937 29.917 13.083C29.8063 12.9723 29.6268 12.9723 29.5162 13.083L28.5 14.0992L27.4839 13.083C27.3732 12.9723 27.1937 12.9723 27.083 13.083Z" fill="#0F0F0F"/>
<path d="M9.08302 13.083C8.97233 13.1937 8.97233 13.3732 9.08302 13.4839L10.0992 14.5L9.08302 15.5162C8.97233 15.6268 8.97233 15.8063 9.08302 15.917C9.1937 16.0277 9.37316 16.0277 9.48385 15.917L10.5 14.9008L11.5162 15.917C11.6268 16.0277 11.8063 16.0277 11.917 15.917C12.0277 15.8063 12.0277 15.6268 11.917 15.5162L10.9008 14.5L11.917 13.4839C12.0277 13.3732 12.0277 13.1937 11.917 13.083C11.8063 12.9723 11.6268 12.9723 11.5162 13.083L10.5 14.0992L9.48385 13.083C9.37316 12.9723 9.1937 12.9723 9.08302 13.083Z" fill="#0F0F0F"/>
<defs>
<clipPath id="clip0_11_57">
<path d="M0 24.6316C0 14.1672 8.53566 5.6842 19 5.6842V5.6842C29.4643 5.6842 38 14.1672 38 24.6316V24.6316C38 30.9102 32.9102 36 26.6316 36H11.3684C5.08982 36 0 30.9102 0 24.6316V24.6316Z" fill="white"/>
</clipPath>
</defs>
</svg>
