<svg width="24" height="24" viewBox="0 0 24 24" fill="none" xmlns="http://www.w3.org/2000/svg">
<g clip-path="url(#clip0_69_41)">
<path d="M0.539429 18.7285L1.09625 18.1822C2.41379 16.8896 4.52965 16.9098 5.82211 18.2272C7.11476 19.5449 7.09447 21.6607 5.77692 22.9533L5.22011 23.4996L0.539429 18.7285Z" fill="#FF4F18"/>
<path d="M2.1887 19.2957L1.63183 19.842L0.539429 18.7285L1.09625 18.1822C2.41379 16.8896 4.52965 16.9098 5.82221 18.2274C6.01116 18.42 6.16931 18.6266 6.30224 18.8483C5.02291 18.0476 3.31359 18.1921 2.1887 19.2957Z" fill="#FF7953"/>
<path d="M4.68499 21.8402L4.12817 22.3865L5.22058 23.5L5.7774 22.9538C7.09494 21.6612 7.11524 19.5453 5.82263 18.2278C5.63368 18.0352 5.42223 17.8685 5.20309 17.7314C5.97929 19.0259 5.80998 20.7367 4.68499 21.8402Z" fill="#EE2300"/>
<path d="M23.4605 5.27091L22.9037 5.81718C21.5861 7.10979 19.4703 7.08959 18.1778 5.77219C16.8852 4.45455 16.9055 2.33874 18.223 1.04613L18.7798 0.499862L23.4605 5.27091Z" fill="#FF4F18"/>
<path d="M19.3154 2.1597L19.8722 1.61342L18.7798 0.499926L18.223 1.0462C16.9055 2.3388 16.8852 4.45461 18.1778 5.77216C18.3667 5.96476 18.5768 6.12099 18.7959 6.25815C18.0198 4.96362 18.1905 3.26326 19.3154 2.1597Z" fill="#FF7953"/>
<path d="M21.8113 4.70373L22.3681 4.15746L23.4605 5.27096L22.9037 5.81723C21.5861 7.10984 19.4703 7.08963 18.1777 5.77209C17.9887 5.57949 17.8365 5.3664 17.7036 5.14473C18.983 5.94548 20.6863 5.80729 21.8113 4.70373Z" fill="#EE2300"/>
<path d="M18.2624 5.85647C16.2 3.7543 12.8241 3.7221 10.722 5.78434L5.81073 10.6026C3.70856 12.6649 3.67636 16.0408 5.7386 18.143C7.80092 20.2451 11.1769 20.2773 13.279 18.2151L18.1903 13.3968C20.2924 11.3345 20.3247 7.95855 18.2624 5.85647Z" fill="#FFD92D"/>
<path d="M12.0055 7.06793L7.09421 11.8862C5.20091 13.7436 4.98754 16.6662 6.4704 18.7645C6.21292 18.5823 5.96726 18.3761 5.73851 18.143C3.67618 16.0408 3.70848 12.6649 5.81065 10.6026L10.7219 5.78428C12.8241 3.72195 16.2 3.75425 18.2623 5.85642C18.4672 6.06524 18.6505 6.28705 18.814 6.51852C16.7496 5.05792 13.8745 5.2343 12.0055 7.06793Z" fill="#FFE571"/>
<path d="M18.1902 13.3968L13.2789 18.2151C11.1767 20.2774 7.80077 20.2451 5.73849 18.143C5.53196 17.9325 5.34751 17.7088 5.18298 17.4753C7.24686 18.9312 10.1182 18.7533 11.9854 16.9216L16.8967 12.1033C18.7883 10.2474 19.0029 7.32837 17.5243 5.23056C17.7841 5.41379 18.0318 5.62144 18.2623 5.85642C20.3246 7.95855 20.2923 11.3345 18.1902 13.3968Z" fill="#FFA81E"/>
<path d="M12.2918 18.9799L5.53137 10.898C5.62001 10.7969 5.7131 10.6983 5.81065 10.6026L6.79196 9.63983L13.6558 17.8454L13.2789 18.2151C12.9741 18.5142 12.6423 18.7688 12.2918 18.9799Z" fill="#FF4F18"/>
<path d="M8.24255 8.21673L9.51299 6.9703L16.3768 15.1758L15.1064 16.4222L8.24255 8.21673Z" fill="#FF4F18"/>
<path d="M17.8275 13.7527L10.9707 5.55567C11.4379 5.15138 11.9579 4.84154 12.5064 4.62634L18.9975 12.3862C18.7752 12.7469 18.5063 13.0868 18.1903 13.3968L17.8275 13.7527Z" fill="#FF4F18"/>
<path d="M12.4789 16.4381L13.6558 17.8453L13.5415 17.9575L13.279 18.2151C13.2786 18.2153 13.2783 18.2157 13.2779 18.216C13.2424 18.2508 13.2065 18.2849 13.1702 18.3186C13.1594 18.3286 13.1484 18.3384 13.1375 18.3483C13.1112 18.3723 13.0847 18.3961 13.0581 18.4196C13.046 18.4302 13.0339 18.4406 13.0218 18.451C12.9952 18.4739 12.9686 18.4964 12.9418 18.5187C12.9304 18.5281 12.9191 18.5374 12.9077 18.5467C12.8784 18.5706 12.8488 18.5941 12.8191 18.6172C12.8103 18.6241 12.8016 18.631 12.7927 18.6378C12.7565 18.6657 12.72 18.6931 12.6832 18.7199C12.6809 18.7216 12.6786 18.7234 12.6762 18.7251C12.551 18.8161 12.4227 18.901 12.2918 18.9799L11.1345 17.5962C11.4398 17.4009 11.7401 17.1847 12.0091 16.9207L12.4789 16.4381Z" fill="#EE2300"/>
<path d="M16.3768 15.1758L15.1064 16.4222L13.9286 15.0147L15.1991 13.7683L16.3768 15.1758Z" fill="#EE2300"/>
<path d="M18.991 12.3902C18.7687 12.7508 18.4997 13.0907 18.1838 13.4008L17.821 13.7566L16.6503 12.3452L16.925 12.0966C17.2771 11.7512 17.5613 11.3575 17.7968 10.9506L18.991 12.3902Z" fill="#EE2300"/>
<path d="M13.6379 5.9791C13.0985 6.20803 12.589 6.52996 12.1334 6.94583L10.9706 5.55568C11.1447 5.40493 11.3263 5.26745 11.5139 5.14295C11.516 5.14159 11.5181 5.14019 11.5201 5.13883C11.5815 5.09819 11.6436 5.05895 11.7063 5.02108C11.7079 5.02014 11.7094 5.01925 11.711 5.01831C11.8351 4.94355 11.9618 4.8745 12.0904 4.8108C12.0962 4.80794 12.1019 4.80499 12.1078 4.80213C12.1689 4.77208 12.2306 4.7434 12.2926 4.71588C12.3 4.7126 12.3075 4.70932 12.315 4.70609C12.3784 4.67834 12.442 4.65162 12.5061 4.62645L12.5063 4.6264L13.6379 5.9791Z" fill="#FF7953"/>
<path d="M10.6801 8.36549L9.40958 9.61197L8.24255 8.21671L8.9212 7.55086L9.51299 6.97028L10.6801 8.36549Z" fill="#FF7953"/>
<path d="M6.79193 9.63987L7.95906 11.0351L7.0804 11.8971C6.94746 12.0275 6.82367 12.1637 6.70733 12.304L5.53125 10.898C5.53125 10.898 5.5313 10.8979 5.53139 10.8978C5.57086 10.8528 5.6115 10.8085 5.6527 10.7646C5.66259 10.754 5.67253 10.7435 5.68256 10.733C5.72442 10.6891 5.76684 10.6455 5.81057 10.6026L6.79193 9.63987Z" fill="#FF7953"/>
<path d="M15.1645 15.7573L15.3984 15.5094C15.4933 15.4089 15.6236 15.362 15.7515 15.3697C15.8525 15.3759 15.952 15.4161 16.0314 15.491C16.2113 15.6607 16.2194 15.9441 16.0497 16.1239L15.8158 16.3719C15.6461 16.5517 15.3627 16.5599 15.1828 16.3902C15.0029 16.2206 14.9948 15.9372 15.1645 15.7573Z" fill="#1C2042"/>
<path d="M23.8446 5.48152L23.294 6.03412C22.5796 6.7512 21.6286 7.14715 20.6163 7.14898C20.2742 7.14968 19.9392 7.10426 19.6175 7.01759C20.0009 7.79725 20.2046 8.66001 20.2062 9.55437C20.209 11.0982 19.6104 12.5507 18.5207 13.6444L17.4434 14.7256C17.2688 14.9008 16.9853 14.9013 16.8101 14.7268C16.6349 14.5522 16.6344 14.2688 16.809 14.0935L17.8863 13.0122C19.2478 11.6459 19.6308 9.66879 19.038 7.95821C18.8587 8.72072 18.4101 9.52119 17.7165 10.2173C17.542 10.3924 17.2585 10.3929 17.0833 10.2184C16.9081 10.0439 16.9076 9.76039 17.0821 9.58512C18.1895 8.47378 18.5627 6.97465 17.8972 6.31161C17.2953 5.71204 17.1701 5.58708 15.4771 6.67986C15.2693 6.81387 14.9921 6.7542 14.858 6.5465C14.7239 6.33875 14.7836 6.06159 14.9914 5.92748C15.5684 5.55506 16.0335 5.27649 16.4426 5.11669C14.6404 4.30211 12.4423 4.63581 10.9662 6.11727L6.11 10.9911C4.73382 12.3722 4.35765 14.3773 4.97822 16.1004C5.18606 15.4031 5.61332 14.6854 6.24275 14.0536C6.3372 13.9589 6.46348 13.9153 6.58727 13.9228C6.69227 13.9292 6.79558 13.9724 6.87592 14.0525C7.05109 14.227 7.05161 14.5105 6.87705 14.6858C5.95574 15.6105 5.54324 16.8032 5.81385 17.5599C5.91074 17.6763 6.01306 17.7896 6.12247 17.8987C6.31235 18.0878 6.51448 18.2573 6.72555 18.4087C7.05123 18.4459 7.50591 18.2211 8.48207 17.5911C8.68996 17.457 8.96703 17.5167 9.10114 17.7244C9.23525 17.9322 9.17553 18.2093 8.96778 18.3435C8.5402 18.6194 8.17406 18.844 7.84646 19.0071C9.58929 19.6616 11.6329 19.2883 13.0299 17.8862C13.0323 17.8837 13.0347 17.8814 13.0372 17.879L14.2489 16.7173C14.4273 16.5461 14.7108 16.5521 14.882 16.7306C15.0531 16.9091 15.0471 17.1926 14.8686 17.3637L13.6605 18.522C12.5712 19.6132 11.1224 20.2157 9.58029 20.2185C8.68672 20.2202 7.82386 20.0199 7.04327 19.6399C7.38817 20.9074 7.06633 22.3203 6.07456 23.3157L5.52402 23.8683C5.34951 24.0434 5.06601 24.0439 4.89075 23.8694L0.156498 19.1516C0.0723585 19.0678 0.0250155 18.954 0.0247811 18.8352C0.0245468 18.7165 0.0715148 18.6025 0.155326 18.5184L0.705958 17.9658C1.42042 17.2487 2.3714 16.8528 3.38365 16.851C3.46488 16.8508 3.5457 16.8532 3.62604 16.8581C3.88324 16.8737 4.13528 16.9159 4.37982 16.9816C3.32693 14.828 3.69124 12.1499 5.47588 10.3588L10.3321 5.48503C11.4218 4.39141 12.8721 3.78753 14.416 3.78481C14.5399 3.78457 14.663 3.78823 14.7854 3.79568C15.5481 3.84209 16.2822 4.03741 16.9553 4.36553C16.8673 4.04379 16.8205 3.70864 16.8199 3.36613C16.8181 2.35388 17.2106 1.40153 17.9251 0.684404L18.4757 0.131803C18.5595 0.0476636 18.6733 0.000322113 18.792 8.77421e-05C18.8014 8.77421e-05 18.8108 0.000320935 18.8201 0.0009303C18.9286 0.00753957 19.0315 0.0534766 19.1089 0.130679L23.8436 4.84815C23.9277 4.93196 23.975 5.04577 23.9753 5.16455C23.9754 5.28338 23.9285 5.39738 23.8446 5.48152ZM3.38524 17.7464C2.61224 17.7479 1.88597 18.0503 1.34031 18.5979L1.10575 18.8333L5.20598 22.9187L5.44054 22.6833C6.5412 21.5787 6.56257 19.8006 5.50813 18.6689C5.48231 18.6443 5.45638 18.6197 5.43009 18.5935C5.41265 18.5761 5.39667 18.5578 5.37998 18.5399C4.839 18.0268 4.13411 17.7453 3.38524 17.7464ZM18.794 1.08115L18.5594 1.31655C18.0138 1.86418 17.714 2.59153 17.7154 3.36453C17.7167 4.13763 18.0191 4.86381 18.5668 5.40957C19.0705 5.9114 19.7261 6.20521 20.4297 6.248C20.491 6.25175 20.5528 6.25354 20.6147 6.25344C21.3877 6.25199 22.114 5.9496 22.6597 5.40197L22.8942 5.16657L18.794 1.08115Z" fill="#1C2042"/>
<path d="M16.2433 12.7706C16.0673 12.5969 15.7838 12.5987 15.6101 12.7748L13.558 14.8544C13.3843 15.0305 13.3862 15.3139 13.5622 15.4876C13.7383 15.6613 14.0217 15.6594 14.1954 15.4834L16.2475 13.4037C16.4212 13.2277 16.4193 12.9442 16.2433 12.7706Z" fill="white"/>
<path d="M13.0424 16.0144C12.8664 15.8408 12.5829 15.8426 12.4092 16.0187L12.1961 16.2347C12.0224 16.4107 12.0242 16.6942 12.2003 16.8678C12.3763 17.0415 12.6598 17.0397 12.8335 16.8636L13.0466 16.6476C13.2203 16.4716 13.2184 16.1881 13.0424 16.0144Z" fill="white"/>
</g>
<defs>
<clipPath id="clip0_69_41">
<rect width="24" height="24" fill="white" transform="matrix(1 0 0 -1 0 24)"/>
</clipPath>
</defs>
</svg>
