<svg width="24" height="29" viewBox="0 0 24 29" fill="none" xmlns="http://www.w3.org/2000/svg">
<path d="M19.8764 4.55708C19.4372 4.73211 19.1074 5.56311 19.1074 5.56311C19.1074 5.56311 19.4299 6.02644 19.7727 6.2556C20.0947 6.47094 20.3249 6.63976 20.7116 6.66394C21.0516 6.68521 21.2814 6.5581 21.6048 6.45108C21.8916 6.3562 22.4714 6.21986 22.4714 6.21986C22.4714 6.21986 22.1509 5.46365 21.901 5.15988C21.6189 4.81707 21.43 4.58198 21.0019 4.46426C20.6057 4.35529 20.2581 4.40497 19.8764 4.55708Z" fill="#5AB37F" stroke="#5AB37F" stroke-width="1.6636"/>
<path d="M17.5216 6.44132C17.5216 6.44132 18.293 5.96152 18.5915 5.79911C19.094 5.52566 19.5746 5.42295 20.1443 5.37022C20.8515 5.30476 22.3995 6.20996 22.3995 6.20996" stroke="#5AB37F" stroke-width="2.32904"/>
<path d="M18.3974 3.37948C18.3937 3.84418 17.7485 4.43833 17.7485 4.43833C17.7485 4.43833 17.2076 4.3045 16.8746 4.07007C16.5617 3.84978 16.3243 3.69754 16.1638 3.35092C16.0227 3.04606 16.0573 2.79053 16.0399 2.45594C16.0245 2.15931 15.9424 1.57908 15.9424 1.57908C15.9424 1.57908 16.7514 1.60833 17.1198 1.7314C17.5355 1.8703 17.819 1.96144 18.0801 2.31329C18.3219 2.63897 18.4006 2.97559 18.3974 3.37948Z" fill="#5AB37F" stroke="#5AB37F" stroke-width="1.6636"/>
<path d="M16.4175 8.03244C16.4175 8.03244 16.971 7.33149 17.2299 6.84869C17.3825 6.56402 17.4862 6.39418 17.5375 6.18926C17.5889 5.98433 17.6608 5.78514 17.6975 5.42846C17.772 4.70576 17.7213 3.81295 17.3699 3.16225C17.035 2.54219 16.0746 1.67297 16.0746 1.67297" stroke="#5AB37F" stroke-width="2.32904"/>
<path d="M9.67297 9.90047C10.3757 7.26175 13.4606 6.09131 15.7368 7.59981L17.2205 8.5831C19.4415 10.0551 19.625 13.2481 17.5872 14.9648L8.87584 22.3032C7.88053 23.1416 6.39745 22.2004 6.73235 20.9428L9.67297 9.90047Z" fill="#FF9D56" stroke="#FF9D56" stroke-width="0.33272"/>
<path d="M12.2632 19.2996C11.4314 19.0224 9.70123 18.1684 9.43506 16.9706" stroke="#856445" stroke-width="0.998161" stroke-linecap="round" stroke-linejoin="round"/>
<path d="M16.7549 15.4734C15.3131 15.0297 12.2299 13.7099 11.4314 11.9798" stroke="#856445" stroke-width="0.998161" stroke-linecap="round" stroke-linejoin="round"/>
</svg>
