<svg width="40" height="47" viewBox="0 0 40 47" fill="none" xmlns="http://www.w3.org/2000/svg">
<circle cx="20" cy="33" r="3" fill="#FF9D56"/>
<g filter="url(#filter0_i_77_104)">
<path d="M24.4614 33.9642C20.8481 38.7278 19.1 39.246 15.1887 33.9575C15.216 33.9778 15.2413 33.9959 15.2682 34.016C15.2419 33.9889 15.2154 33.9635 15.1887 33.9358C19.0722 29.4326 20.5783 29.4332 24.4614 33.9429C24.4266 33.9721 24.3918 33.9994 24.3569 34.0284C24.3918 34.0068 24.426 33.9858 24.4614 33.9642ZM37.083 19.9915C36.246 17.6791 34.8611 15.444 32.8933 13.4677C31.8574 12.3859 30.6927 11.4309 29.4231 10.6286C27.1135 8.9774 24.739 7.4153 22.3573 5.86682C19.8483 3.4718 16.4626 2 12.7334 2C11.4423 2 10.192 2.1761 9.00482 2.50574C11.9712 2.70914 14.6841 3.84374 16.8575 5.62148C15.4803 5.16488 14.0087 4.91792 12.4797 4.91792C9.9314 4.91792 7.54172 5.60426 5.4833 6.80336C6.62936 6.49754 7.83338 6.33476 9.07478 6.33476C11.0467 6.33476 12.9228 6.74774 14.6246 7.4891C13.235 8.40806 11.854 9.3395 10.4932 10.2989C7.43918 12.0842 4.94438 14.7304 3.33302 17.9096C2.96348 18.6427 2.64614 19.3951 2.37638 20.1648C1.34282 26.766 2.78774 32.5721 2.5841 33.1151C5.05988 39.4818 11.1091 44.18 17.9111 44.8231C18.4937 44.8783 19.0786 44.906 19.6638 44.9061C23.2212 44.9061 26.557 43.872 29.3857 42.0243C32.7112 39.9339 35.3235 36.8004 36.7755 33.0792C36.5803 32.5461 37.7193 24.4721 37.083 19.9915Z" fill="#FFF200"/>
</g>
<path d="M18.4069 36.0808C17.8514 35.6332 17.2186 34.9534 16.4704 33.993C17.192 33.1915 17.7965 32.6043 18.331 32.2021C18.9838 31.711 19.4488 31.5592 19.8245 31.5595C20.2002 31.5598 20.6655 31.7122 21.3185 32.2045C21.852 32.6067 22.4551 33.1933 23.1746 33.9934C22.4953 34.8524 21.9114 35.5027 21.383 35.961C20.7319 36.5257 20.2611 36.7142 19.8904 36.7314C19.5335 36.748 19.0692 36.6144 18.4069 36.0808ZM38.0731 19.8509L38.0585 19.7484L38.0233 19.6511C37.1369 17.2023 35.6744 14.8455 33.6088 12.769C32.5256 11.6389 31.3084 10.6399 29.9817 9.7987C27.6851 8.15762 25.3288 6.60639 22.9791 5.07833C20.2998 2.55251 16.6977 1 12.7334 1C11.3509 1 10.0107 1.18861 8.73728 1.54219L8.93641 3.5034C9.8261 3.5644 10.6912 3.71564 11.5229 3.9482C9.15113 4.09875 6.927 4.80506 4.97995 5.93928L5.74113 7.76955C6.80376 7.48599 7.92113 7.33476 9.07478 7.33476C10.2259 7.33476 11.3411 7.48622 12.403 7.76962C11.5814 8.32382 10.7632 8.8854 9.95137 9.45736C6.74803 11.3396 4.1326 14.1201 2.44105 17.4575L2.44006 17.4595C2.05024 18.2328 1.71614 19.0252 1.43267 19.834L1.40252 19.92L1.38842 20.0101C0.854438 23.4205 0.96241 26.6108 1.17288 28.9995C1.26703 30.0681 1.38249 30.9833 1.47021 31.6787C1.48054 31.7606 1.49049 31.8394 1.49997 31.9151C1.5458 32.281 1.57856 32.556 1.59448 32.7537C1.59893 32.809 1.60149 32.8517 1.60283 32.8838L1.51367 33.1216L1.65209 33.4775C4.26064 40.1857 10.6267 45.1388 17.8168 45.8186C18.4307 45.8768 19.047 45.906 19.6636 45.9061H19.6638C23.4153 45.9061 26.938 44.8156 29.9253 42.8663C33.4278 40.6624 36.1778 37.3619 37.7071 33.4427L37.8445 33.0905L37.7528 32.8401C37.7521 32.7834 37.7534 32.7007 37.758 32.5875C37.7684 32.3271 37.7931 31.9668 37.8277 31.5161C37.849 31.2403 37.8738 30.9327 37.9006 30.6C37.9602 29.8614 38.0298 28.9988 38.0924 28.0838C38.2727 25.4451 38.4079 22.2085 38.0731 19.8509ZM1.60315 32.9603C1.60297 32.96 1.60307 32.9544 1.60399 32.9444C1.60379 32.9556 1.60333 32.9606 1.60315 32.9603ZM37.756 32.9103C37.7559 32.9105 37.7552 32.9054 37.7546 32.894C37.7559 32.9044 37.7562 32.9102 37.756 32.9103Z" stroke="black" stroke-width="2"/>
<circle cx="9.5" cy="27.5" r="2.5" fill="black"/>
<circle cx="29.5" cy="27.5" r="2.5" fill="black"/>
<defs>
<filter id="filter0_i_77_104" x="0" y="0" width="39.2782" height="46.9061" filterUnits="userSpaceOnUse" color-interpolation-filters="sRGB">
<feFlood flood-opacity="0" result="BackgroundImageFix"/>
<feBlend mode="normal" in="SourceGraphic" in2="BackgroundImageFix" result="shape"/>
<feColorMatrix in="SourceAlpha" type="matrix" values="0 0 0 0 0 0 0 0 0 0 0 0 0 0 0 0 0 0 127 0" result="hardAlpha"/>
<feOffset dy="4"/>
<feComposite in2="hardAlpha" operator="arithmetic" k2="-1" k3="1"/>
<feColorMatrix type="matrix" values="0 0 0 0 1 0 0 0 0 0.309804 0 0 0 0 0.0941176 0 0 0 0.5 0"/>
<feBlend mode="normal" in2="shape" result="effect1_innerShadow_77_104"/>
</filter>
</defs>
</svg>
