<svg width="16" height="15" viewBox="0 0 16 15" fill="none" xmlns="http://www.w3.org/2000/svg">
<path d="M13.6667 2.88063C13.3017 2.46662 12.8434 2.13366 12.3246 1.90573C11.8058 1.6778 11.2396 1.56058 10.6667 1.5625C9.68647 1.53467 8.73213 1.86012 8.00005 2.47187C7.26796 1.86012 6.31362 1.53467 5.33338 1.5625C4.76048 1.56058 4.19425 1.6778 3.67549 1.90573C3.15673 2.13366 2.69835 2.46662 2.33338 2.88063C1.69805 3.60313 1.03338 4.91125 1.47405 7.04313C2.17738 10.4475 7.45138 13.2412 7.67405 13.3556C7.7733 13.4075 7.88507 13.4347 7.99871 13.4347C8.11236 13.4347 8.22412 13.4075 8.32338 13.3556C8.54738 13.2387 13.8214 10.445 14.5234 7.04313C14.9667 4.91125 14.302 3.60313 13.6667 2.88063ZM13.2174 6.80562C12.72 9.2125 9.10538 11.4513 8.00005 12.0875C6.44271 11.2062 3.23871 8.99375 2.78605 6.80562C2.44405 5.15188 2.91205 4.19125 3.36538 3.67625C3.60512 3.40507 3.9059 3.18699 4.24615 3.03765C4.5864 2.88832 4.95769 2.81143 5.33338 2.8125C5.73464 2.78429 6.13685 2.85403 6.5008 3.01494C6.86475 3.17585 7.17801 3.42242 7.41005 3.73062C7.46726 3.82933 7.55167 3.91185 7.65448 3.96957C7.75728 4.0273 7.87472 4.05812 7.99455 4.05882C8.11438 4.05952 8.23222 4.03008 8.33578 3.97357C8.43935 3.91705 8.52485 3.83553 8.58338 3.7375C8.81497 3.4269 9.1289 3.17824 9.49422 3.01603C9.85955 2.85383 10.2637 2.78368 10.6667 2.8125C11.0432 2.81078 11.4154 2.88736 11.7565 3.03672C12.0976 3.18608 12.3991 3.4045 12.6394 3.67625C13.0914 4.19125 13.5594 5.15188 13.2174 6.80562Z" fill="black"/>
<path d="M13.2174 6.80562C12.72 9.2125 9.10538 11.4513 8.00005 12.0875C6.44271 11.2062 3.23871 8.99375 2.78605 6.80562C2.44405 5.15188 2.91205 4.19125 3.36538 3.67625C3.60512 3.40507 3.9059 3.18699 4.24615 3.03765C4.5864 2.88832 4.95769 2.81143 5.33338 2.8125C5.73464 2.78429 6.13685 2.85403 6.5008 3.01494C6.86475 3.17585 7.17801 3.42242 7.41005 3.73062C7.46726 3.82933 7.55167 3.91185 7.65448 3.96957C7.75728 4.0273 7.87472 4.05812 7.99455 4.05882C8.11438 4.05952 8.23222 4.03008 8.33578 3.97357C8.43935 3.91705 8.52485 3.83553 8.58338 3.7375C8.81497 3.4269 9.1289 3.17824 9.49422 3.01603C9.85955 2.85383 10.2637 2.78368 10.6667 2.8125C11.0432 2.81078 11.4154 2.88736 11.7565 3.03672C12.0976 3.18608 12.3991 3.4045 12.6394 3.67625C13.0914 4.19125 13.5594 5.15188 13.2174 6.80562Z" fill="#FF0000"/>
</svg>
