<svg width="25" height="26" viewBox="0 0 25 26" fill="none" xmlns="http://www.w3.org/2000/svg">
<path d="M13.3138 0.791565H11.5072C7.62071 0.791565 5.50757 5.24851 6.6874 8.95157C7.02376 10.0073 7.25656 11.3047 7.41722 12.5518C7.42822 12.6371 7.44091 12.717 7.45527 12.7916H17.2488C17.2847 12.6586 17.3121 12.5067 17.3304 12.3339C17.4555 11.1537 17.6539 9.94434 17.9674 8.95157C19.117 5.31113 17.1315 0.791565 13.3138 0.791565Z" fill="black" fill-opacity="0.13"/>
<path d="M11.7345 25.9916H12.4403C18.8728 25.9916 24.0874 20.777 24.0874 14.3445C24.0874 13.4868 23.3921 12.7916 22.5345 12.7916H17.2488C16.9079 14.0543 15.7972 13.8436 14.3603 13.5709C13.6627 13.4385 12.8881 13.2916 12.0874 13.2916C11.2383 13.2916 10.4715 13.4864 9.81479 13.6532C8.57218 13.9689 7.72331 14.1846 7.45527 12.7916H1.64034C0.782678 12.7916 0.0874023 13.4868 0.0874023 14.3445C0.0874023 20.777 5.30197 25.9916 11.7345 25.9916Z" fill="black" fill-opacity="0.13"/>
<path d="M12.0874 13.2916C12.8881 13.2916 13.6627 13.4385 14.3603 13.5709C15.7972 13.8436 16.9079 14.0543 17.2488 12.7916C16.357 12.7916 15.4272 12.9237 14.5237 13.0522C13.67 13.1735 12.8398 13.2916 12.0874 13.2916Z" fill="black" fill-opacity="0.13"/>
<path fill-rule="evenodd" clip-rule="evenodd" d="M17.2488 12.7916H7.45527C8.27095 12.7916 9.10729 12.9246 9.91705 13.0535C10.6769 13.1744 11.4134 13.2916 12.0874 13.2916C12.8398 13.2916 13.67 13.1735 14.5237 13.0522C15.4272 12.9237 16.357 12.7916 17.2488 12.7916Z" fill="black" fill-opacity="0.13"/>
<path d="M7.45527 12.7916C7.72331 14.1846 8.57218 13.9689 9.81479 13.6532C10.4715 13.4864 11.2383 13.2916 12.0874 13.2916C11.4134 13.2916 10.6769 13.1744 9.91705 13.0535C9.10729 12.9246 8.27095 12.7916 7.45527 12.7916Z" fill="black" fill-opacity="0.13"/>
</svg>
