<svg width="60" height="60" viewBox="0 0 60 60" fill="none" xmlns="http://www.w3.org/2000/svg">
<path d="M30 29.0681C32.507 29.0681 34.9114 28.0722 36.6841 26.2994C38.4569 24.5267 39.4528 22.1223 39.4528 19.6153C39.4528 17.1082 38.4569 14.7039 36.6841 12.9311C34.9114 11.1584 32.507 10.1625 30 10.1625C27.493 10.1625 25.0886 11.1584 23.3159 12.9311C21.5431 14.7039 20.5472 17.1082 20.5472 19.6153C20.5472 22.1223 21.5431 24.5267 23.3159 26.2994C25.0886 28.0722 27.493 29.0681 30 29.0681ZM30 33.2212C17.4319 33.2212 9.375 40.1568 9.375 43.5337V49.8393H50.625V43.5337C50.625 39.45 42.9975 33.2212 30 33.2212Z" fill="#8B4513"/>
</svg>
